<svg width="100" height="76" viewBox="0 0 100 76" fill="none" xmlns="http://www.w3.org/2000/svg">
<path d="M27.7445 24.1753L28.0863 24.2896L31.3998 25.394L32.058 25.6128V21.7974L31.7162 21.6831L28.4017 20.5786L27.7445 20.3599V24.1753Z" fill="#202020" stroke="#202020"/>
<path d="M9.5177 46.9605H14.9357V35.6197L14.6115 35.4976L10.1925 33.8404L9.5177 33.5875V46.9605ZM27.7511 13.2388L26.6466 19.8668L26.5753 20.2886L26.9825 20.4234L81.8722 38.564V44.0455L82.1964 44.1666L86.6154 45.8238L87.2902 46.0767V40.355L92.1573 41.9644L92.6876 42.1392L92.8029 41.5923L95.0128 31.0982L95.1105 30.6343L94.6515 30.5123L28.3732 12.8375L27.8409 12.6959L27.7511 13.2388ZM30.5187 1.05719L28.8615 8.23688L28.7521 8.71246L29.2238 8.83356L95.5031 25.9556L96.0148 26.0884L96.1183 25.5699L98.3273 14.523L98.4259 14.0328L97.9347 13.9351L31.1027 0.67926L30.6271 0.584534L30.5187 1.05719Z" fill="#202020" stroke="#202020"/>
<path d="M86.5934 49.3141L82.7272 50.9714L82.3102 51.1501L82.4479 51.5827L86.3141 63.7341L86.4811 64.2585L86.9879 64.0417L90.8541 62.3845L91.2711 62.2057L91.1334 61.7741L87.2672 49.6227L87.1002 49.0974L86.5934 49.3141ZM63.6451 75.2516L64.2535 75.1169L69.2242 74.0124L69.6158 73.9255V64.7536L71.8082 56.5309L72.0651 55.5671L71.1403 55.9382L65.6168 58.1472L65.3688 58.2458L65.3131 58.5065L63.6559 66.239L63.6451 66.2907V75.2516Z" fill="#202020" stroke="#202020"/>
<path d="M26.4528 22.7811L2.70276 29.409L1.41858 29.7674L2.6217 30.3416L63.9293 59.6151L64.1364 59.7137L64.3453 59.6219L90.8571 48.0233L91.9801 47.532L90.8346 47.0975L26.7643 22.7947L26.611 22.7371L26.4528 22.7811Z" fill="#202020" stroke="#202020"/>
</svg>
